<?xml version="1.0" encoding="UTF-8" standalone="no"?>
<!DOCTYPE svg PUBLIC "-//W3C//DTD SVG 1.1//EN" "http://www.w3.org/Graphics/SVG/1.1/DTD/svg11.dtd">
<svg width="100%" height="100%" viewBox="0 0 400 184" version="1.1" xmlns="http://www.w3.org/2000/svg" xmlns:xlink="http://www.w3.org/1999/xlink" xml:space="preserve" xmlns:serif="http://www.serif.com/" style="fill-rule:evenodd;clip-rule:evenodd;stroke-miterlimit:10;"><rect id="Seite-1" serif:id="Seite 1" x="0" y="0" width="399.149" height="183.317" style="fill:none;"/><clipPath id="_clip1"><rect x="0" y="0" width="399.149" height="183.317"/></clipPath><g clip-path="url(#_clip1)"><path d="M172.163,0.196l-37.385,0c-2.201,0 -3.985,1.785 -3.985,3.985l0,3.437c0,2.201 1.784,3.985 3.985,3.985l37.385,0c2.201,0 3.985,-1.784 3.985,-3.985l0,-3.437c0,-2.2 -1.784,-3.985 -3.985,-3.985Z" style="fill:#e3e8f2;fill-rule:nonzero;stroke:#4664aa;stroke-width:0.4px;"/><path d="M74.275,28.543l-45.705,0c-2.201,0 -3.985,1.784 -3.985,3.985l-0,27.6c-0,2.201 1.784,3.986 3.985,3.986l45.705,-0c2.201,-0 3.985,-1.785 3.985,-3.986l0,-27.6c0,-2.201 -1.784,-3.985 -3.985,-3.985Zm3.985,11.883l-53.675,-0m53.675,11.882l-53.675,0" style="fill:#d9efec;fill-rule:nonzero;stroke:#009682;stroke-width:0.4px;"/><path d="M53.816,170.277l-4.787,0c-2.201,0 -3.985,1.784 -3.985,3.985l-0,3.819c-0,2.201 1.784,3.985 3.985,3.985l4.787,-0c2.201,-0 3.985,-1.784 3.985,-3.985l-0,-3.819c-0,-2.201 -1.784,-3.985 -3.985,-3.985Z" style="fill:#d9efec;fill-rule:nonzero;stroke:#009682;stroke-width:0.4px;"/><path d="M70.115,87.489l-37.385,-0c-2.201,-0 -3.985,1.784 -3.985,3.985l-0,51.443c-0,2.201 1.784,3.985 3.985,3.985l37.385,0c2.201,0 3.985,-1.784 3.985,-3.985l-0,-51.443c-0,-2.201 -1.784,-3.985 -3.985,-3.985Zm3.985,11.882l-45.355,0m45.355,11.883l-45.355,0m45.355,11.883l-45.355,-0m45.355,11.882l-45.355,0" style="fill:#d9efec;fill-rule:nonzero;stroke:#009682;stroke-width:0.4px;"/><path d="M176.452,28.543l-45.963,0c-2.201,0 -3.985,1.784 -3.985,3.985l0,6.481c0,2.201 1.784,3.985 3.985,3.985l45.963,-0c2.201,-0 3.985,-1.784 3.985,-3.985l-0,-6.481c-0,-2.201 -1.784,-3.985 -3.985,-3.985Z" style="fill:#e3e8f2;fill-rule:nonzero;stroke:#4664aa;stroke-width:0.4px;"/><path d="M253.587,28.543l-41.49,0c-2.201,0 -3.985,1.784 -3.985,3.985l-0,15.718c-0,2.201 1.784,3.985 3.985,3.985l41.49,-0c2.201,-0 3.985,-1.784 3.985,-3.985l0,-15.718c0,-2.201 -1.784,-3.985 -3.985,-3.985Zm3.985,11.883l-49.46,-0" style="fill:#d9efec;fill-rule:nonzero;stroke:#009682;stroke-width:0.4px;"/><path d="M235.235,113.584l-4.787,-0c-2.201,-0 -3.985,1.784 -3.985,3.985l0,3.818c0,2.201 1.784,3.985 3.985,3.985l4.787,0c2.201,0 3.985,-1.784 3.985,-3.985l0,-3.818c0,-2.201 -1.784,-3.985 -3.985,-3.985Z" style="fill:#d9efec;fill-rule:nonzero;stroke:#009682;stroke-width:0.4px;"/><path d="M251.534,69.669l-37.385,-0c-2.201,-0 -3.985,1.784 -3.985,3.985l0,18.507c0,2.201 1.784,3.985 3.985,3.985l37.385,-0c2.201,-0 3.985,-1.784 3.985,-3.985l0,-18.507c0,-2.201 -1.784,-3.985 -3.985,-3.985Zm3.985,13.238l-45.355,0" style="fill:#d9efec;fill-rule:nonzero;stroke:#009682;stroke-width:0.4px;"/><path d="M107.365,81.666l0,47.324c0,2.201 1.784,3.985 3.985,3.985l4.87,0c2.201,0 3.985,-1.784 3.985,-3.985l0,-47.324c0,-2.201 -1.784,-3.985 -3.985,-3.985l-4.87,-0c-2.201,-0 -3.985,1.784 -3.985,3.985Z" style="fill:#e3e8f2;fill-rule:nonzero;stroke:#4664aa;stroke-width:0.4px;"/><path d="M349.966,28.543l-41.49,0c-2.201,0 -3.985,1.784 -3.985,3.985l0,15.718c0,2.201 1.784,3.985 3.985,3.985l41.49,-0c2.201,-0 3.986,-1.784 3.986,-3.985l-0,-15.718c-0,-2.201 -1.785,-3.985 -3.986,-3.985Zm3.986,11.883l-49.461,-0" style="fill:#d9efec;fill-rule:nonzero;stroke:#009682;stroke-width:0.4px;"/><path d="M331.615,113.584l-4.787,-0c-2.201,-0 -3.985,1.784 -3.985,3.985l-0,3.818c-0,2.201 1.784,3.985 3.985,3.985l4.787,0c2.201,0 3.985,-1.784 3.985,-3.985l-0,-3.818c-0,-2.201 -1.784,-3.985 -3.985,-3.985Z" style="fill:#d9efec;fill-rule:nonzero;stroke:#009682;stroke-width:0.4px;"/><path d="M347.914,69.669l-37.385,-0c-2.201,-0 -3.985,1.784 -3.985,3.985l-0,18.507c-0,2.201 1.784,3.985 3.985,3.985l37.385,-0c2.201,-0 3.985,-1.784 3.985,-3.985l-0,-18.507c-0,-2.201 -1.784,-3.985 -3.985,-3.985Zm3.985,13.238l-45.355,0" style="fill:#d9efec;fill-rule:nonzero;stroke:#009682;stroke-width:0.4px;"/><path d="M251.534,170.277l-37.385,0c-2.201,0 -3.985,1.784 -3.985,3.985l0,4.87c0,2.201 1.784,3.985 3.985,3.985l37.385,0c2.201,0 3.985,-1.784 3.985,-3.985l0,-4.87c0,-2.201 -1.784,-3.985 -3.985,-3.985Z" style="fill:#e3e8f2;fill-rule:nonzero;stroke:#4664aa;stroke-width:0.4px;"/><path d="M386.114,46.289l0,77.497c0,2.201 1.784,3.985 3.985,3.985l4.87,-0c2.201,-0 3.985,-1.784 3.985,-3.985l0,-77.497c0,-2.2 -1.784,-3.985 -3.985,-3.985l-4.87,0c-2.201,0 -3.985,1.785 -3.985,3.985Z" style="fill:#f1dede;fill-rule:nonzero;stroke:#a22223;stroke-width:0.4px;"/><path d="M128.326,5.9l-72.919,-0c-2.2,-0 -3.985,1.784 -3.985,3.985l0,15.484" style="fill:none;fill-rule:nonzero;stroke:#009682;stroke-width:0.8px;"/><path d="M53.495,23.815c-0.778,0.129 -1.943,1.554 -2.073,1.942c-0.129,-0.388 -1.295,-1.813 -2.072,-1.942" style="fill:none;fill-rule:nonzero;stroke:#009682;stroke-width:0.64px;stroke-linecap:round;stroke-linejoin:round;"/><path d="M51.422,66.581l0,17.733" style="fill:none;fill-rule:nonzero;stroke:#009682;stroke-width:0.8px;"/><path d="M53.495,82.76c-0.778,0.13 -1.943,1.554 -2.073,1.943c-0.129,-0.389 -1.295,-1.813 -2.072,-1.943" style="fill:none;fill-rule:nonzero;stroke:#009682;stroke-width:0.64px;stroke-linecap:round;stroke-linejoin:round;"/><path d="M51.422,149.369l0,17.734" style="fill:none;fill-rule:nonzero;stroke:#009682;stroke-width:0.8px;"/><path d="M53.495,165.549c-0.778,0.129 -1.943,1.554 -2.073,1.942c-0.129,-0.388 -1.295,-1.813 -2.072,-1.942" style="fill:none;fill-rule:nonzero;stroke:#009682;stroke-width:0.64px;stroke-linecap:round;stroke-linejoin:round;"/><text x="144.613px" y="8.285px" style="font-family:'ArialMT', 'Arial', sans-serif;font-size:6.974px;fill:#4664aa;">S<tspan x="149.717px 152.106px 156.437px 159.211px " y="8.285px 8.285px 8.285px 8.285px ">tart</tspan></text><g><text x="30.013px" y="36.908px" style="font-family:'ArialMT', 'Arial', sans-serif;font-size:6.974px;fill:#009682;">S<tspan x="35.145px 37.564px 41.923px 46.282px 48.7px 51.503px 56.636px 60.995px 63.798px 66.216px 70.575px " y="36.908px 36.908px 36.908px 36.908px 36.908px 36.908px 36.908px 36.908px 36.908px 36.908px 36.908px ">tud.-Portal</tspan></text><text x="27.905px" y="48.792px" style="font-family:'ArialMT', 'Arial', sans-serif;font-size:6.974px;fill:#009682;">Y<tspan x="32.333px 36.629px 40.925px 45.993px 50.289px 54.585px 58.489px 62.393px 65.132px 67.099px 71.394px " y="48.792px 48.792px 48.792px 48.792px 48.792px 48.792px 48.792px 48.792px 48.792px 48.792px 48.792px ">ouSubscribe</tspan></text><text x="37.619px" y="60.596px" style="font-family:'ArialMT', 'Arial', sans-serif;font-size:6.974px;fill:#009682;">A<tspan x="42.987px 46.026px 48.681px 53.276px 59.802px 62.068px " y="60.596px 60.596px 60.596px 60.596px 60.596px 60.596px ">rtemis</tspan></text></g><text x="48.364px" y="177.915px" style="font-family:'ArialMT', 'Arial', sans-serif;font-size:6.974px;fill:#009682;">+</text><g><text x="39.083px" y="95.853px" style="font-family:'ArialMT', 'Arial', sans-serif;font-size:6.974px;fill:#009682;">B<tspan x="44.313px 46.441px 50.898px 53.414px 55.93px 59.791px " y="95.853px 95.853px 95.853px 95.853px 95.853px 95.853px ">latt	1</tspan></text><text x="39.083px" y="107.737px" style="font-family:'ArialMT', 'Arial', sans-serif;font-size:6.974px;fill:#009682;">B<tspan x="44.313px 46.441px 50.898px 53.414px 55.93px 59.791px " y="107.737px 107.737px 107.737px 107.737px 107.737px 107.737px ">latt	2</tspan></text><text x="39.083px" y="119.621px" style="font-family:'ArialMT', 'Arial', sans-serif;font-size:6.974px;fill:#009682;">B<tspan x="44.313px 46.441px 50.898px 53.414px 55.93px 59.791px " y="119.621px 119.621px 119.621px 119.621px 119.621px 119.621px ">latt	3</tspan></text><text x="39.083px" y="131.504px" style="font-family:'ArialMT', 'Arial', sans-serif;font-size:6.974px;fill:#009682;">B<tspan x="44.313px 46.441px 50.898px 53.414px 55.93px 59.791px " y="131.504px 131.504px 131.504px 131.504px 131.504px 131.504px ">latt	4</tspan></text><text x="39.083px" y="143.388px" style="font-family:'ArialMT', 'Arial', sans-serif;font-size:6.974px;fill:#009682;">B<tspan x="44.313px 46.441px 50.898px 53.414px 55.93px 59.791px " y="143.388px 143.388px 143.388px 143.388px 143.388px 143.388px ">latt	5</tspan></text></g><g><text x="130.778px" y="36.557px" style="font-family:'ArialMT', 'Arial', sans-serif;font-size:6.974px;fill:#4664aa;">¨</text><text x="129.824px" y="38.32px" style="font-family:'ArialMT', 'Arial', sans-serif;font-size:6.974px;fill:#4664aa;">U<tspan x="135.094px 139.207px 143.319px 147.431px 151.544px 155.265px 158.985px 162.706px 166.819px 170.931px 172.714px " y="38.32px 38.32px 38.32px 38.32px 38.32px 38.32px 38.32px 38.32px 38.32px 38.32px 38.32px ">bungsschein</tspan></text></g><g><text x="211.43px" y="36.908px" style="font-family:'ArialMT', 'Arial', sans-serif;font-size:6.974px;fill:#009682;">S<tspan x="216.562px 218.981px 223.34px 227.699px 230.117px 232.92px 238.053px 242.412px 245.215px 247.633px 251.992px " y="36.908px 36.908px 36.908px 36.908px 36.908px 36.908px 36.908px 36.908px 36.908px 36.908px 36.908px ">tud.-Portal</tspan></text><text x="219.036px" y="48.712px" style="font-family:'ArialMT', 'Arial', sans-serif;font-size:6.974px;fill:#009682;">A<tspan x="224.404px 227.443px 230.098px 234.693px 241.219px 243.485px " y="48.712px 48.712px 48.712px 48.712px 48.712px 48.712px ">rtemis</tspan></text></g><text x="229.781px" y="121.222px" style="font-family:'ArialMT', 'Arial', sans-serif;font-size:6.974px;fill:#009682;">+</text><g><text x="214.183px" y="78.033px" style="font-family:'ArialMT', 'Arial', sans-serif;font-size:6.974px;fill:#009682;">A<tspan x="219.41px 221.923px 224.821px 230.048px 234.502px 237.015px 241.469px " y="78.033px 78.033px 78.033px 78.033px 78.033px 78.033px 78.033px ">.-Aufg.</tspan></text><text x="247.526px" y="78.033px" style="font-family:'ArialMT', 'Arial', sans-serif;font-size:6.974px;fill:#009682;">1</text><text x="214.183px" y="91.277px" style="font-family:'ArialMT', 'Arial', sans-serif;font-size:6.974px;fill:#009682;">A<tspan x="219.41px 221.923px 224.821px 230.048px 234.502px 237.015px 241.469px " y="91.277px 91.277px 91.277px 91.277px 91.277px 91.277px 91.277px ">.-Aufg.</tspan></text><text x="247.526px" y="91.277px" style="font-family:'ArialMT', 'Arial', sans-serif;font-size:6.974px;fill:#009682;">2</text></g><g transform="matrix(0,-1,1,0,0,0)"><text x="-129.656px" y="115.528px" style="font-family:'ArialMT', 'Arial', sans-serif;font-size:6.974px;fill:#4664aa;">Pr<tspan x="-122.845px -119.048px -116.807px -113.402px -109.605px -105.808px -102.402px -98.605px -96.365px -92.568px -88.77px " y="115.528px 115.528px 115.528px 115.528px 115.528px 115.528px 115.528px 115.528px 115.528px 115.528px 115.528px ">a¨senzu¨bun</tspan>g</text></g><g><text x="307.808px" y="36.908px" style="font-family:'ArialMT', 'Arial', sans-serif;font-size:6.974px;fill:#009682;">S<tspan x="312.94px 315.359px 319.718px 324.077px 326.495px 329.298px 334.431px 338.79px 341.593px 344.011px 348.37px " y="36.908px 36.908px 36.908px 36.908px 36.908px 36.908px 36.908px 36.908px 36.908px 36.908px 36.908px ">tud.-Portal</tspan></text><text x="315.414px" y="48.712px" style="font-family:'ArialMT', 'Arial', sans-serif;font-size:6.974px;fill:#009682;">A<tspan x="320.782px 323.821px 326.476px 331.071px 337.597px 339.863px " y="48.712px 48.712px 48.712px 48.712px 48.712px 48.712px ">rtemis</tspan></text></g><text x="326.16px" y="121.222px" style="font-family:'ArialMT', 'Arial', sans-serif;font-size:6.974px;fill:#009682;">+</text><g><text x="310.562px" y="78.033px" style="font-family:'ArialMT', 'Arial', sans-serif;font-size:6.974px;fill:#009682;">A<tspan x="315.789px 318.302px 321.2px 326.427px 330.881px 333.394px 337.848px " y="78.033px 78.033px 78.033px 78.033px 78.033px 78.033px 78.033px ">.-Aufg.</tspan></text><text x="343.905px" y="78.033px" style="font-family:'ArialMT', 'Arial', sans-serif;font-size:6.974px;fill:#009682;">1</text><text x="310.562px" y="91.277px" style="font-family:'ArialMT', 'Arial', sans-serif;font-size:6.974px;fill:#009682;">A<tspan x="315.789px 318.302px 321.2px 326.427px 330.881px 333.394px 337.848px " y="91.277px 91.277px 91.277px 91.277px 91.277px 91.277px 91.277px ">.-Aufg.</tspan></text><text x="343.905px" y="91.277px" style="font-family:'ArialMT', 'Arial', sans-serif;font-size:6.974px;fill:#009682;">2</text></g><text x="214.792px" y="178.441px" style="font-family:'ArialMT', 'Arial', sans-serif;font-size:6.974px;fill:#4664aa;">B<tspan x="219.722px 223.879px 227.644px 229.86px 234.017px 238.174px 242.33px 246.487px " y="178.441px 178.441px 178.441px 178.441px 178.441px 178.441px 178.441px 178.441px ">estanden</tspan></text><g transform="matrix(0,-1,1,0,0,0)"><text x="-124.451px" y="394.273px" style="font-family:'ArialMT', 'Arial', sans-serif;font-size:6.974px;fill:#a22223;">Z<tspan x="-119.742px -114.257px -109.929px -105.601px -101.274px -97.338px -93.01px -89.074px -82.816px -78.488px -76.101px -73.33px -71.331px -67.395px -63.068px -58.74px -56.353px -54.355px -50.027px " y="394.273px 394.273px 394.273px 394.273px 394.273px 394.273px 394.273px 394.273px 394.273px 394.273px 394.273px 394.273px 394.273px 394.273px 394.273px 394.273px 394.273px 394.273px 394.273px ">wangsexmatrikuation</tspan></text></g><path d="M60.268,176.172l49.532,-0c2.201,-0 3.985,-1.785 3.985,-3.986l0,-36.036" style="fill:none;fill-rule:nonzero;stroke:#009682;stroke-width:0.8px;"/><path d="M111.713,137.704c0.777,-0.13 1.943,-1.554 2.072,-1.943c0.13,0.389 1.295,1.813 2.072,1.943" style="fill:none;fill-rule:nonzero;stroke:#009682;stroke-width:0.64px;stroke-linecap:round;stroke-linejoin:round;"/><path d="M113.785,75.214l0,-35.46c0,-2.201 1.784,-3.985 3.985,-3.985l5.56,-0" style="fill:none;fill-rule:nonzero;stroke:#009682;stroke-width:0.8px;"/><path d="M121.776,33.696c0.129,0.777 1.554,1.943 1.942,2.073c-0.388,0.129 -1.813,1.295 -1.942,2.072" style="fill:none;fill-rule:nonzero;stroke:#009682;stroke-width:0.64px;stroke-linecap:round;stroke-linejoin:round;"/><path d="M182.903,35.075l22.035,-0.52" style="fill:none;fill-rule:nonzero;stroke:#009682;stroke-width:0.8px;"/><path d="M203.336,32.52c0.148,0.774 1.599,1.905 1.991,2.025c-0.386,0.139 -1.782,1.338 -1.894,2.118" style="fill:none;fill-rule:nonzero;stroke:#009682;stroke-width:0.64px;stroke-linecap:round;stroke-linejoin:round;"/><path d="M232.842,54.698l-0,11.796" style="fill:none;fill-rule:nonzero;stroke:#009682;stroke-width:0.8px;"/><path d="M234.914,64.94c-0.777,0.13 -1.943,1.554 -2.072,1.943c-0.13,-0.389 -1.295,-1.813 -2.072,-1.943" style="fill:none;fill-rule:nonzero;stroke:#009682;stroke-width:0.64px;stroke-linecap:round;stroke-linejoin:round;"/><path d="M232.842,98.613l-0,11.796" style="fill:none;fill-rule:nonzero;stroke:#009682;stroke-width:0.8px;"/><path d="M234.914,108.855c-0.777,0.13 -1.943,1.554 -2.072,1.943c-0.13,-0.389 -1.295,-1.813 -2.072,-1.943" style="fill:none;fill-rule:nonzero;stroke:#009682;stroke-width:0.64px;stroke-linecap:round;stroke-linejoin:round;"/><path d="M232.842,127.839l-0,39.264" style="fill:none;fill-rule:nonzero;stroke:#009682;stroke-width:0.8px;"/><path d="M234.914,165.549c-0.777,0.129 -1.943,1.554 -2.072,1.942c-0.13,-0.388 -1.295,-1.813 -2.072,-1.942" style="fill:none;fill-rule:nonzero;stroke:#009682;stroke-width:0.64px;stroke-linecap:round;stroke-linejoin:round;"/><g><text x="61.52px" y="172.149px" style="font-family:'Arial-ItalicMT', 'Arial', sans-serif;font-style:italic;font-size:4.981px;fill:#009682;">&gt;</text><text x="68.953px" y="172.149px" style="font-family:'Consolas', monospace;font-size:4.981px;fill:#009682;"><tspan x="68.953px 72.126px 75.299px " y="172.149px 172.149px 172.149px ">50%</tspan></text></g><g><text x="21.645px" y="171.56px" style="font-family:'Arial-ItalicMT', 'Arial', sans-serif;font-style:italic;font-size:4.981px;fill:#df9b1b;">≤</text><text x="29.08px" y="171.56px" style="font-family:'Consolas', monospace;font-size:4.981px;fill:#df9b1b;"><tspan x="29.08px 32.253px 35.426px " y="171.56px 171.56px 171.56px ">50%</tspan></text></g><path d="M42.577,176.172l-38.194,-0c-2.201,-0 -3.985,-1.785 -3.985,-3.986l0,-162.301c0,-2.201 1.784,-3.985 3.985,-3.985l44.064,-0" style="fill:none;fill-rule:nonzero;stroke:#df9b1b;stroke-width:0.8px;"/><path d="M46.893,3.827c0.13,0.778 1.554,1.943 1.943,2.073c-0.389,0.129 -1.813,1.295 -1.943,2.072" style="fill:none;fill-rule:nonzero;stroke:#df9b1b;stroke-width:0.64px;stroke-linecap:round;stroke-linejoin:round;"/><path d="M104.898,105.328l-15.474,0c-2.201,0 -3.986,-1.784 -3.986,-3.985l0,-51.03c0,-2.2 -1.784,-3.985 -3.985,-3.985l-0.019,0" style="fill:none;fill-rule:nonzero;stroke:#df9b1b;stroke-width:0.8px;"/><path d="M82.989,48.401c-0.13,-0.778 -1.555,-1.943 -1.943,-2.073c0.388,-0.129 1.813,-1.295 1.943,-2.072" style="fill:none;fill-rule:nonzero;stroke:#df9b1b;stroke-width:0.64px;stroke-linecap:round;stroke-linejoin:round;"/><path d="M26.278,93.43l-22.905,0" style="fill:none;fill-rule:nonzero;stroke:#a22223;stroke-width:0.8px;"/><path d="M4.927,95.502c-0.129,-0.777 -1.554,-1.942 -1.942,-2.072c0.388,-0.129 1.813,-1.295 1.942,-2.072" style="fill:none;fill-rule:nonzero;stroke:#a22223;stroke-width:0.64px;stroke-linecap:round;stroke-linejoin:round;"/><path d="M26.278,105.313l-22.905,-0" style="fill:none;fill-rule:nonzero;stroke:#a22223;stroke-width:0.8px;"/><path d="M4.927,107.385c-0.129,-0.777 -1.554,-1.943 -1.942,-2.072c0.388,-0.13 1.813,-1.295 1.942,-2.072" style="fill:none;fill-rule:nonzero;stroke:#a22223;stroke-width:0.64px;stroke-linecap:round;stroke-linejoin:round;"/><path d="M26.278,117.195l-22.905,0" style="fill:none;fill-rule:nonzero;stroke:#a22223;stroke-width:0.8px;"/><path d="M4.927,119.268c-0.129,-0.777 -1.554,-1.943 -1.942,-2.073c0.388,-0.129 1.813,-1.295 1.942,-2.072" style="fill:none;fill-rule:nonzero;stroke:#a22223;stroke-width:0.64px;stroke-linecap:round;stroke-linejoin:round;"/><path d="M26.278,129.078l-22.905,0" style="fill:none;fill-rule:nonzero;stroke:#a22223;stroke-width:0.8px;"/><path d="M4.927,131.15c-0.129,-0.777 -1.554,-1.942 -1.942,-2.072c0.388,-0.129 1.813,-1.295 1.942,-2.072" style="fill:none;fill-rule:nonzero;stroke:#a22223;stroke-width:0.64px;stroke-linecap:round;stroke-linejoin:round;"/><path d="M26.278,140.961l-22.905,-0" style="fill:none;fill-rule:nonzero;stroke:#a22223;stroke-width:0.8px;"/><path d="M4.927,143.033c-0.129,-0.777 -1.554,-1.943 -1.942,-2.072c0.388,-0.13 1.813,-1.295 1.942,-2.072" style="fill:none;fill-rule:nonzero;stroke:#a22223;stroke-width:0.64px;stroke-linecap:round;stroke-linejoin:round;"/><path d="M26.278,117.195l-22.905,0" style="fill:none;fill-rule:nonzero;stroke:#a22223;stroke-width:0.8px;"/><path d="M4.927,119.268c-0.129,-0.777 -1.554,-1.943 -1.942,-2.073c0.388,-0.129 1.813,-1.295 1.942,-2.072" style="fill:none;fill-rule:nonzero;stroke:#a22223;stroke-width:0.64px;stroke-linecap:round;stroke-linejoin:round;"/><path d="M241.687,119.478l26.856,-0c2.2,-0 3.985,-1.784 3.985,-3.985l-0,-77.023c-0,-2.201 1.784,-3.986 3.985,-3.986l24.804,0" style="fill:none;fill-rule:nonzero;stroke:#df9b1b;stroke-width:0.8px;"/><path d="M299.763,32.412c0.129,0.777 1.554,1.943 1.942,2.072c-0.388,0.13 -1.813,1.296 -1.942,2.073" style="fill:none;fill-rule:nonzero;stroke:#df9b1b;stroke-width:0.64px;stroke-linecap:round;stroke-linejoin:round;"/><path d="M329.221,54.698l0,11.796" style="fill:none;fill-rule:nonzero;stroke:#009682;stroke-width:0.8px;"/><path d="M331.293,64.94c-0.777,0.13 -1.942,1.554 -2.072,1.943c-0.129,-0.389 -1.295,-1.813 -2.072,-1.943" style="fill:none;fill-rule:nonzero;stroke:#009682;stroke-width:0.64px;stroke-linecap:round;stroke-linejoin:round;"/><path d="M329.221,98.613l0,11.796" style="fill:none;fill-rule:nonzero;stroke:#009682;stroke-width:0.8px;"/><path d="M331.294,108.855c-0.778,0.13 -1.943,1.554 -2.073,1.943c-0.129,-0.389 -1.295,-1.813 -2.072,-1.943" style="fill:none;fill-rule:nonzero;stroke:#009682;stroke-width:0.64px;stroke-linecap:round;stroke-linejoin:round;"/><path d="M329.221,127.839l0,9.907c0,2.201 -1.784,3.985 -3.985,3.985l-89.419,0" style="fill:none;fill-rule:nonzero;stroke:#009682;stroke-width:0.8px;"/><path d="M237.371,143.803c-0.129,-0.777 -1.554,-1.942 -1.943,-2.072c0.389,-0.129 1.814,-1.295 1.943,-2.072" style="fill:none;fill-rule:nonzero;stroke:#009682;stroke-width:0.64px;stroke-linecap:round;stroke-linejoin:round;"/><path d="M338.067,119.478l44.873,-0" style="fill:none;fill-rule:nonzero;stroke:#a22223;stroke-width:0.8px;"/><path d="M381.386,117.406c0.129,0.777 1.554,1.942 1.942,2.072c-0.388,0.129 -1.813,1.295 -1.942,2.072" style="fill:none;fill-rule:nonzero;stroke:#a22223;stroke-width:0.64px;stroke-linecap:round;stroke-linejoin:round;"/><path d="M257.986,76.288l11.567,-0" style="fill:none;fill-rule:nonzero;stroke:#a22223;stroke-width:0.8px;"/><path d="M267.998,74.216c0.13,0.777 1.555,1.942 1.943,2.072c-0.388,0.129 -1.813,1.295 -1.943,2.072" style="fill:none;fill-rule:nonzero;stroke:#a22223;stroke-width:0.64px;stroke-linecap:round;stroke-linejoin:round;"/><path d="M257.986,89.527l11.567,-0" style="fill:none;fill-rule:nonzero;stroke:#a22223;stroke-width:0.8px;"/><path d="M267.998,87.454c0.13,0.778 1.555,1.943 1.943,2.073c-0.388,0.129 -1.813,1.295 -1.943,2.072" style="fill:none;fill-rule:nonzero;stroke:#a22223;stroke-width:0.64px;stroke-linecap:round;stroke-linejoin:round;"/><path d="M354.366,76.288l28.574,-0" style="fill:none;fill-rule:nonzero;stroke:#a22223;stroke-width:0.8px;"/><path d="M381.386,74.216c0.129,0.777 1.554,1.942 1.942,2.072c-0.388,0.129 -1.813,1.295 -1.942,2.072" style="fill:none;fill-rule:nonzero;stroke:#a22223;stroke-width:0.64px;stroke-linecap:round;stroke-linejoin:round;"/><path d="M354.366,89.527l28.574,-0" style="fill:none;fill-rule:nonzero;stroke:#a22223;stroke-width:0.8px;"/><path d="M381.386,87.454c0.129,0.778 1.554,1.943 1.942,2.073c-0.388,0.129 -1.813,1.295 -1.942,2.072" style="fill:none;fill-rule:nonzero;stroke:#a22223;stroke-width:0.64px;stroke-linecap:round;stroke-linejoin:round;"/><g><text x="85.987px" y="64.426px" style="font-family:'Arial-ItalicMT', 'Arial', sans-serif;font-style:italic;font-size:4.981px;fill:#df9b1b;">&lt;</text><text x="93.419px" y="64.426px" style="font-family:'Consolas', monospace;font-size:4.981px;fill:#df9b1b;"><tspan x="93.419px 96.593px 99.766px " y="64.426px 64.426px 64.426px ">75%</tspan></text></g><g><text x="117.304px" y="60.115px" style="font-family:'Arial-ItalicMT', 'Arial', sans-serif;font-style:italic;font-size:4.981px;fill:#009682;">≥</text><text x="124.739px" y="60.115px" style="font-family:'Consolas', monospace;font-size:4.981px;fill:#009682;"><tspan x="124.739px 127.912px 131.085px " y="60.115px 60.115px 60.115px ">75%</tspan></text></g><text x="4.803px" y="88.943px" style="font-family:'Consolas', monospace;font-size:4.981px;fill:#a22223;">B<tspan x="8.17px 11.536px 14.903px 18.269px 21.636px " y="88.943px 88.943px 88.943px 88.943px 88.943px ">etrug</tspan></text><g><text x="209.64px" y="132.828px" style="font-family:'Arial-ItalicMT', 'Arial', sans-serif;font-style:italic;font-size:4.981px;fill:#009682;">&gt;</text><text x="217.075px" y="132.828px" style="font-family:'Consolas', monospace;font-size:4.981px;fill:#009682;"><tspan x="217.075px 220.248px 223.421px " y="132.828px 132.828px 132.828px ">50%</tspan></text></g><g><text x="242.937px" y="114.867px" style="font-family:'Arial-ItalicMT', 'Arial', sans-serif;font-style:italic;font-size:4.981px;fill:#df9b1b;">≤</text><text x="250.37px" y="114.867px" style="font-family:'Consolas', monospace;font-size:4.981px;fill:#df9b1b;"><tspan x="250.37px 253.543px 256.716px " y="114.867px 114.867px 114.867px ">50%</tspan></text></g><g><text x="332.737px" y="132.828px" style="font-family:'Arial-ItalicMT', 'Arial', sans-serif;font-style:italic;font-size:4.981px;fill:#009682;">&gt;</text><text x="340.172px" y="132.828px" style="font-family:'Consolas', monospace;font-size:4.981px;fill:#009682;"><tspan x="340.172px 343.345px 346.518px " y="132.828px 132.828px 132.828px ">50%</tspan></text></g><g><text x="339.315px" y="114.867px" style="font-family:'Arial-ItalicMT', 'Arial', sans-serif;font-style:italic;font-size:4.981px;fill:#a22223;">≤</text><text x="346.75px" y="114.867px" style="font-family:'Consolas', monospace;font-size:4.981px;fill:#a22223;"><tspan x="346.75px 349.923px 353.096px " y="114.867px 114.867px 114.867px ">50%</tspan></text></g><text x="259.236px" y="71.801px" style="font-family:'Consolas', monospace;font-size:4.981px;fill:#a22223;">B<tspan x="262.603px 265.969px 269.336px 272.702px 276.069px " y="71.801px 71.801px 71.801px 71.801px 71.801px ">etrug</tspan></text><text x="355.614px" y="71.801px" style="font-family:'Consolas', monospace;font-size:4.981px;fill:#a22223;">B<tspan x="358.981px 362.347px 365.714px 369.08px 372.447px " y="71.801px 71.801px 71.801px 71.801px 71.801px ">etrug</tspan></text><path d="M22.118,34.484l-18.745,0" style="fill:none;fill-rule:nonzero;stroke:#a22223;stroke-width:0.8px;"/><path d="M4.927,36.557c-0.129,-0.777 -1.554,-1.943 -1.942,-2.073c0.388,-0.129 1.813,-1.295 1.942,-2.072" style="fill:none;fill-rule:nonzero;stroke:#a22223;stroke-width:0.64px;stroke-linecap:round;stroke-linejoin:round;"/><path d="M22.118,46.367l-18.745,0" style="fill:none;fill-rule:nonzero;stroke:#a22223;stroke-width:0.8px;"/><path d="M4.927,48.439c-0.129,-0.777 -1.554,-1.942 -1.942,-2.072c0.388,-0.129 1.813,-1.295 1.942,-2.072" style="fill:none;fill-rule:nonzero;stroke:#a22223;stroke-width:0.64px;stroke-linecap:round;stroke-linejoin:round;"/><path d="M22.118,58.211l-18.745,0" style="fill:none;fill-rule:nonzero;stroke:#a22223;stroke-width:0.8px;"/><path d="M4.927,60.283c-0.129,-0.777 -1.554,-1.942 -1.942,-2.072c0.388,-0.129 1.813,-1.295 1.942,-2.072" style="fill:none;fill-rule:nonzero;stroke:#a22223;stroke-width:0.64px;stroke-linecap:round;stroke-linejoin:round;"/><path d="M22.118,46.328l-18.745,0" style="fill:none;fill-rule:nonzero;stroke:#a22223;stroke-width:0.8px;"/><path d="M4.927,48.401c-0.129,-0.778 -1.554,-1.943 -1.942,-2.073c0.388,-0.129 1.813,-1.295 1.942,-2.072" style="fill:none;fill-rule:nonzero;stroke:#a22223;stroke-width:0.64px;stroke-linecap:round;stroke-linejoin:round;"/><path d="M260.039,46.328l5.086,0c2.201,0 3.985,-1.784 3.985,-3.985l-0,-18.518c-0,-2.201 -1.784,-3.985 -3.985,-3.985l-28.298,-0c-2.201,-0 -3.985,1.784 -3.985,3.985l-0,1.544" style="fill:none;fill-rule:nonzero;stroke:#df9b1b;stroke-width:0.8px;"/><path d="M234.914,23.815c-0.777,0.129 -1.943,1.554 -2.072,1.942c-0.13,-0.388 -1.295,-1.813 -2.072,-1.942" style="fill:none;fill-rule:nonzero;stroke:#df9b1b;stroke-width:0.64px;stroke-linecap:round;stroke-linejoin:round;"/><path d="M260.039,34.484l6.096,0" style="fill:none;fill-rule:nonzero;stroke:#a22223;stroke-width:0.8px;"/><path d="M264.581,32.412c0.129,0.777 1.554,1.943 1.942,2.072c-0.388,0.13 -1.813,1.296 -1.942,2.073" style="fill:none;fill-rule:nonzero;stroke:#a22223;stroke-width:0.64px;stroke-linecap:round;stroke-linejoin:round;"/><path d="M356.419,46.328l5.085,0c2.201,0 3.985,-1.784 3.985,-3.985l0,-18.518c0,-2.201 -1.784,-3.985 -3.985,-3.985l-28.298,-0c-2.201,-0 -3.985,1.784 -3.985,3.985l0,1.544" style="fill:none;fill-rule:nonzero;stroke:#df9b1b;stroke-width:0.8px;"/><path d="M331.294,23.815c-0.778,0.129 -1.943,1.554 -2.073,1.942c-0.129,-0.388 -1.295,-1.813 -2.072,-1.942" style="fill:none;fill-rule:nonzero;stroke:#df9b1b;stroke-width:0.64px;stroke-linecap:round;stroke-linejoin:round;"/><path d="M356.419,34.484l6.095,0" style="fill:none;fill-rule:nonzero;stroke:#a22223;stroke-width:0.8px;"/><path d="M360.96,32.412c0.13,0.777 1.554,1.943 1.943,2.072c-0.389,0.13 -1.813,1.296 -1.943,2.073" style="fill:none;fill-rule:nonzero;stroke:#a22223;stroke-width:0.64px;stroke-linecap:round;stroke-linejoin:round;"/></g></svg>